# xmcd
#
# Track frame offsets:
# 150
# 18096
# 36794
# 55353
# 74441
# 95118
# 112245
# 131361
# 149781
# 166194
# 186063
#
# Disc length: 2713 seconds
#
#
# Revision: 1
# Processed by: cddbd v1.4PL0 Copyright (c) Steve Scherf et al.
# Submitted via: FreeRIP 2.00 
#
DISCID=a10a970b
DTITLE=박강성 - 오리지날 Live and Love [CD2]
DYEAR=1900
DGENRE=
TTITLE0=이별 그후
TTITLE1=내일을 '慕
TTITLE2=이별없는 사랑
TTITLE3=안녕
TTITLE4=비 오던 밤 
TTITLE5=사랑의 상처
TTITLE6=안녕 (경음악)
TTITLE7=우리들은 좋은 친구야
TTITLE8=해야
TTITLE9=내 지난 시간들
TTITLE10=서로 사랑해
EXTD=
EXTT0=
EXTT1=
EXTT2=
EXTT3=
EXTT4=
EXTT5=
EXTT6=
EXTT7=
EXTT8=
EXTT9=
EXTT10=
PLAYORDER=
